<svg xmlns="http://www.w3.org/2000/svg" width="234.47" height="68" viewBox="0 0 234.47 68">
  <metadata><?xpacket begin="﻿" id="W5M0MpCehiHzreSzNTczkc9d"?>
<x:xmpmeta xmlns:x="adobe:ns:meta/" x:xmptk="Adobe XMP Core 5.6-c138 79.159824, 2016/09/14-01:09:01        ">
   <rdf:RDF xmlns:rdf="http://www.w3.org/1999/02/22-rdf-syntax-ns#">
      <rdf:Description rdf:about=""/>
   </rdf:RDF>
</x:xmpmeta>
                                                                                                    
                                                                                                    
                                                                                                    
                                                                                                    
                                                                                                    
                                                                                                    
                                                                                                    
                                                                                                    
                                                                                                    
                                                                                                    
                                                                                                    
                                                                                                    
                                                                                                    
                                                                                                    
                                                                                                    
                                                                                                    
                                                                                                    
                                                                                                    
                                                                                                    
                                                                                                    
                           
<?xpacket end="w"?></metadata>
<defs>
    <style>
      .cls-1 {
        fill: #4cacc2;
      }

      .cls-1, .cls-2 {
        fill-rule: evenodd;
      }

      .cls-2 {
        fill: #fff;
      }
    </style>
  </defs>
  <path id="Company_logotype" data-name="Company  logotype" class="cls-1" d="M1144.9,2240.88a9.914,9.914,0,0,0,6.75-2.29,8.212,8.212,0,0,0,2.85-6.05h-5.17a4.673,4.673,0,0,1-1.45,2.95,4.251,4.251,0,0,1-2.96,1.08,4.12,4.12,0,0,1-3.52-1.77,8.15,8.15,0,0,1-1.29-4.88,8.065,8.065,0,0,1,1.31-4.85,4.056,4.056,0,0,1,3.48-1.75,4.238,4.238,0,0,1,2.99,1.12,4.643,4.643,0,0,1,1.41,3.01h5.17a8.111,8.111,0,0,0-2.84-6.1,11.051,11.051,0,0,0-14.23.53c-1.84,1.94-2.77,4.63-2.77,8.06s0.93,6.12,2.77,8.05a9.808,9.808,0,0,0,7.5,2.89h0Zm21.97-21.87a10.025,10.025,0,0,0-7.61,2.94,12.729,12.729,0,0,0-.02,15.98,11.329,11.329,0,0,0,15.25,0,12.764,12.764,0,0,0,0-15.98,10.033,10.033,0,0,0-7.62-2.94h0Zm0,4.36a4.289,4.289,0,0,1,3.61,1.78,9.133,9.133,0,0,1,0,9.59,4.566,4.566,0,0,1-7.22,0,9.162,9.162,0,0,1,.01-9.59,4.284,4.284,0,0,1,3.6-1.78h0Zm36.26-4h-6.21l-5.33,13.58h-0.12l-5.33-13.58h-6.21v21.14h4.73v-13.2h0.11l5.22,12.98h3.08l5.23-12.98h0.1v13.2h4.73v-21.14Zm3.19,0v21.14h5.38v-6.19h3.56a8.07,8.07,0,0,0,5.73-2.04,7.054,7.054,0,0,0,2.21-5.42,7.307,7.307,0,0,0-2.11-5.45,7.522,7.522,0,0,0-5.5-2.04h-9.27Zm5.38,4.12h2.46a3.745,3.745,0,0,1,2.65.87,3.214,3.214,0,0,1,.95,2.51,3.3,3.3,0,0,1-.95,2.54,3.822,3.822,0,0,1-2.68.86h-2.43v-6.78Zm25.62,17.02h5.71l-7.1-21.14h-6.58l-7.1,21.14h5.47l1.35-4.64h6.92Zm-4.85-16.65h0.12l2.34,8.14h-4.82Zm17.68,16.65v-12.4h0.12l9.01,12.4h4.24v-21.14h-5.09v12.29h-0.12l-8.97-12.29h-4.29v21.14h5.1Zm28.05,0v-7.26l7.28-13.88h-5.67l-4.19,8.79h-0.1l-4.2-8.79h-5.77l7.28,13.88v7.26h5.37Zm-143.05,28.8h1.55v-17.65h-1.55v17.65Zm9.55,0.14c3.47,0,5.74-2.52,5.74-6.45s-2.27-6.45-5.74-6.45-5.73,2.51-5.73,6.45S1141.23,2269.45,1144.7,2269.45Zm0-1.39c-2.56,0-4.15-1.91-4.15-5.06s1.59-5.07,4.15-5.07,4.16,1.91,4.16,5.07S1147.27,2268.06,1144.7,2268.06Zm12.87-.08c-2.42,0-4.02-2-4.02-5.01s1.6-5.04,4.02-5.04,4.1,2.05,4.1,5.04C1161.67,2265.94,1160,2267.98,1157.57,2267.98Zm0.1,5.73c3.38,0,5.55-1.74,5.55-4.63v-12.39h-1.48v2.61h-0.02a4.691,4.691,0,0,0-4.39-2.75c-3.21,0-5.36,2.57-5.36,6.42,0,3.82,2.15,6.4,5.33,6.4a4.6,4.6,0,0,0,4.33-2.74h0.04v2.57c0,1.94-1.56,3.15-3.9,3.15-1.89,0-3.26-.75-3.57-1.88h-1.61C1152.9,2272.41,1154.88,2273.71,1157.67,2273.71Zm13.43-4.26c3.47,0,5.74-2.52,5.74-6.45s-2.27-6.45-5.74-6.45-5.73,2.51-5.73,6.45S1167.63,2269.45,1171.1,2269.45Zm0-1.39c-2.55,0-4.15-1.91-4.15-5.06s1.6-5.07,4.15-5.07c2.57,0,4.16,1.91,4.16,5.07S1173.67,2268.06,1171.1,2268.06Zm8.58-14.39v3.02h-1.8v1.3h1.8v8.22c0,2.27.84,3.17,2.93,3.17a8.045,8.045,0,0,0,1.21-.08v-1.32c-0.1.01-.74,0.04-0.91,0.04-1.17,0-1.68-.56-1.68-1.87v-8.16h2.53v-1.3h-2.53v-3.02h-1.55Zm7.27,20.04c2.05,0,2.93-.82,4.03-3.79l4.92-13.23h-1.64l-3.88,11.05h-0.04l-3.86-11.05h-1.67l4.75,12.7-0.28.79c-0.56,1.59-1.2,2.19-2.35,2.19a3.546,3.546,0,0,1-.76-0.08v1.32A3.6,3.6,0,0,0,1186.95,2273.71Zm16.41-17.16a4.69,4.69,0,0,0-4.37,2.75h-0.03v-2.61h-1.47v16.76h1.55v-6.74h0.03a4.558,4.558,0,0,0,4.32,2.74c3.17,0,5.35-2.6,5.35-6.45S1206.55,2256.55,1203.36,2256.55Zm-0.27,11.51c-2.4,0-4.06-2.05-4.06-5.06,0-2.99,1.66-5.07,4.06-5.07,2.44,0,4.07,2.04,4.07,5.08S1205.53,2268.06,1203.09,2268.06Zm12.78-10.14c2.28,0,3.83,1.69,3.85,4.2h-7.85C1212.01,2259.61,1213.61,2257.92,1215.87,2257.92Zm3.77,7.82a3.465,3.465,0,0,1-3.62,2.34c-2.51,0-4.15-1.76-4.15-4.62v-0.08h9.47v-0.68c0-3.75-2.13-6.15-5.45-6.15-3.4,0-5.62,2.57-5.62,6.48,0,3.97,2.22,6.42,5.71,6.42,2.75,0,4.82-1.56,5.2-3.71h-1.54Z" transform="translate(-1051 -2208)"/>
  <path class="cls-1" d="M1117.99,2242c0,18.78-14.99,34.01-33.49,34.01S1051,2260.78,1051,2242s15-34.01,33.5-34.01S1117.99,2223.22,1117.99,2242Zm-17.03,1a58.437,58.437,0,0,1-7.1-.43,66.318,66.318,0,0,1-20.16-5.89,72.788,72.788,0,0,1-18.29-12.1l0.74-.78a71.285,71.285,0,0,0,18.03,11.91,65.079,65.079,0,0,0,19.83,5.79,57.9,57.9,0,0,0,24.67-2.36l0.32,1.03A59.408,59.408,0,0,1,1100.96,2243Zm-1.71,28.27-2.36-59.61a1.993,1.993,0,0,0-1.3-1.81,1.9,1.9,0,0,0-2.11.55l-38.64,44.67a2.036,2.036,0,0,0-.29,2.18,0.01,0.01,0,0,0,.01.01,1.952,1.952,0,0,0,1.87,1.13l22.74-1.3,16.82,15.71a1.929,1.929,0,0,0,2.14.35A1.979,1.979,0,0,0,1099.25,2271.27Zm0.86-17.96a64.1,64.1,0,0,1-8.16-.52,73.248,73.248,0,0,1-21.2-6.14,79.313,79.313,0,0,1-19.32-12.34l0.73-.8a77.321,77.321,0,0,0,19.06,12.17,72.056,72.056,0,0,0,20.88,6.04,62.892,62.892,0,0,0,25.88-2.08l0.29,1.04A64.181,64.181,0,0,1,1100.11,2253.31Z" transform="translate(-1051 -2208)"/>
  <path id="Shape_4_copy_3" data-name="Shape 4 copy 3" class="cls-2" d="M1100.11,2253.31a64.1,64.1,0,0,1-8.16-.52,73.248,73.248,0,0,1-21.2-6.14,79.313,79.313,0,0,1-19.32-12.34l0.73-.8a77.321,77.321,0,0,0,19.06,12.17,72.056,72.056,0,0,0,20.88,6.04,62.892,62.892,0,0,0,25.88-2.08l0.29,1.04A64.181,64.181,0,0,1,1100.11,2253.31Z" transform="translate(-1051 -2208)"/>
  <path id="Shape_4_copy_2" data-name="Shape 4 copy 2" class="cls-2" d="M1100.96,2243a58.437,58.437,0,0,1-7.1-.43,66.318,66.318,0,0,1-20.16-5.89,72.788,72.788,0,0,1-18.29-12.1l0.74-.78a71.285,71.285,0,0,0,18.03,11.91,65.079,65.079,0,0,0,19.83,5.79,57.9,57.9,0,0,0,24.67-2.36l0.32,1.03A59.408,59.408,0,0,1,1100.96,2243Z" transform="translate(-1051 -2208)"/>
  <path id="Shape_4_copy" data-name="Shape 4 copy" class="cls-2" d="M1099.25,2271.27l-2.36-59.61a1.993,1.993,0,0,0-1.3-1.81,1.9,1.9,0,0,0-2.11.55l-38.64,44.67a2.036,2.036,0,0,0-.29,2.18,0.01,0.01,0,0,0,.01.01,1.952,1.952,0,0,0,1.87,1.13l22.74-1.3,16.82,15.71a1.929,1.929,0,0,0,2.14.35A1.979,1.979,0,0,0,1099.25,2271.27Z" transform="translate(-1051 -2208)"/>
</svg>
